<?xml version="1.0" encoding="utf-8"?>
<!-- Generator: Adobe Illustrator 27.5.0, SVG Export Plug-In . SVG Version: 6.00 Build 0)  -->
<svg version="1.1" xmlns="http://www.w3.org/2000/svg" xmlns:xlink="http://www.w3.org/1999/xlink" x="0px" y="0px"
	 viewBox="0 0 500 500" style="enable-background:new 0 0 500 500;" xml:space="preserve">
<g id="BACKGROUND">
	<rect style="fill:#FFFFFF;" width="500" height="500"/>
</g>
<g id="OBJECTS">
	<path style="fill:#E5E3FC;" d="M287.766,135.968l-70.15,53.867c-1.7,1.305-4.159,0.982-5.464-0.717v0
		c-1.305-1.7-0.982-4.159,0.717-5.464l70.15-53.867c1.7-1.305,4.159-0.982,5.464,0.717l0,0
		C289.788,132.204,289.465,134.663,287.766,135.968z"/>
	<path style="fill:#E5E3FC;" d="M178.966,133.71l-66.306,50.915c-2.757,2.117-6.744,1.593-8.861-1.163l-2.179-2.838
		c-2.117-2.757-1.593-6.745,1.163-8.862l66.306-50.915c2.757-2.117,6.744-1.593,8.861,1.163l2.179,2.838
		C182.247,127.606,181.723,131.593,178.966,133.71z"/>
	<path style="fill:#E5E3FC;" d="M100.093,159.151l-66.306,50.915c-2.757,2.117-6.745,1.593-8.862-1.163l-2.179-2.838
		c-2.117-2.757-1.593-6.744,1.163-8.861l66.306-50.915c2.757-2.117,6.744-1.593,8.861,1.163l2.179,2.838
		C103.374,153.046,102.85,157.034,100.093,159.151z"/>
	<path style="fill:#C9C7FF;" d="M464.543,317.943L464.543,317.943c-5.554-7.903-16.564-9.826-24.467-4.272l-213.444,149.99h61.092
		L460.272,342.41C468.175,336.856,470.097,325.846,464.543,317.943z"/>
	<path style="fill:#E5E3FC;" d="M461.811,240.072L461.811,240.072c-6.682-9.509-19.93-11.822-29.439-5.14l-319.319,224.39
		c-1.766,1.241-3.283,2.71-4.542,4.338h71.874l276.286-194.15C466.181,262.829,468.493,249.582,461.811,240.072z"/>
	<path style="opacity:0.73;fill:#E5E3FC;" d="M344.921,281.907c-7.546-10.738-22.505-13.35-33.243-5.804L47.329,461.865h83.006
		L339.117,315.15C349.855,307.604,352.467,292.645,344.921,281.907z"/>
	<path style="fill:#E5E3FC;" d="M160.261,195.702c-7.058-9.234-20.388-11.013-29.621-3.955l-90.767,69.382
		c-4.943,3.779-7.97,9.544-8.273,15.759v0c-0.876,17.96,19.653,28.738,33.939,17.818l90.767-69.382
		C165.539,218.265,167.319,204.935,160.261,195.702z"/>
	<path style="fill:none;stroke:#191319;stroke-width:1.0483;stroke-linecap:round;stroke-linejoin:round;stroke-miterlimit:10;" d="
		M131.509,130.03L131.509,130.03c-2.243-3.045-1.586-7.371,1.459-9.614l18.469-13.601c3.045-2.243,7.371-1.586,9.614,1.459v0
		c2.243,3.045,1.586,7.371-1.459,9.614l-18.469,13.601C138.078,133.732,133.751,133.075,131.509,130.03z"/>
	<path style="fill:none;stroke:#2D1A14;stroke-width:2.3146;stroke-linecap:round;stroke-linejoin:round;stroke-miterlimit:10;" d="
		M74.385,463.111c117.123,0.005,233.914,0.005,351.151,0"/>
	<g>
		<g>
			<g>
				<path style="fill:#FF6940;" d="M235.581,263.415l-44.24-16.064l-79.166,66.061c0,0,63.689-31.386,95.174-12.042L235.581,263.415
					z"/>
				<path style="fill:#FF6940;" d="M260.13,294.836l-7.009,46.864l-95.27,38.591c0,0,57.657-41.437,55.742-78.567L260.13,294.836z"
					/>
				<path style="fill:#7F6BF4;" d="M321.81,255.82c-61.156,43.951-118.265,68.94-127.559,55.821
					c-9.294-13.119,32.742-59.382,93.898-103.333c18.084-12.996,35.809-24.321,52.038-33.514
					c38.704-21.88,68.976-31.546,75.521-22.307s-12.375,34.926-45.507,64.673C356.291,229.625,339.893,242.824,321.81,255.82z"/>
				<path style="fill:#E5E3FC;" d="M298.514,271.787c7.637-4.984,15.432-10.315,23.296-15.967
					c18.083-12.996,34.481-26.195,48.391-38.661c1.299-1.167,2.569-2.325,3.824-3.478l-29.33-41.398
					c-1.491,0.821-2.991,1.653-4.509,2.511c-16.229,9.193-33.954,20.518-52.038,33.514c-7.864,5.652-15.405,11.341-22.568,16.994
					L298.514,271.787z"/>
				<path style="fill:#211D1D;" d="M249.937,238.113c-2.086,1.773-4.144,3.539-6.14,5.29l30.636,43.243
					c2.293-1.332,4.621-2.717,6.964-4.128L249.937,238.113z"/>
				<path style="fill:#211D1D;" d="M226.383,310.007c12.302-4.422,27.302-11.569,43.833-20.941l-30.064-42.434
					c-14.175,12.696-25.764,24.658-33.917,34.936L226.383,310.007z"/>
				<path style="fill:#211D1D;" d="M203.155,285.595c-8.803,11.968-12.311,21.237-8.904,26.046c3.407,4.809,13.25,4.482,27.35-0.009
					L203.155,285.595z"/>
				<path style="fill:#FF6940;" d="M389.257,198.892c20.951-21.638,31.607-39.128,26.451-46.406
					c-5.156-7.278-25.044-2.817-52.173,10.099L389.257,198.892z"/>
				<ellipse style="fill:#C9C7FF;" cx="305.447" cy="232.723" rx="21.05" ry="21.201"/>
				<ellipse style="fill:#211D1D;" cx="305.447" cy="232.723" rx="12.03" ry="12.116"/>
				<path style="fill:#211D1D;" d="M312.433,242.584c-0.413,0.296-0.836,0.561-1.269,0.8c-0.583,0.317-1.181,0.582-1.795,0.79
					c-1.274,0.452-2.6,0.67-3.92,0.665c-1.31,0-2.61-0.213-3.849-0.639c-2.316-0.779-4.421-2.281-5.948-4.437
					c-3.859-5.45-2.6-13.015,2.806-16.901c0.99-0.712,2.048-1.247,3.141-1.616c1.249-0.431,2.554-0.639,3.849-0.639
					c1.336,0,2.662,0.224,3.92,0.665c0.619,0.213,1.217,0.473,1.795,0.795c1.568,0.847,2.971,2.063,4.075,3.621
					C319.098,231.133,317.845,238.698,312.433,242.584z"/>
				<g>
					<path style="fill:#FF9E00;" d="M131.101,376.985c14.8-10.637,22.981-24.649,18.271-31.296
						c-4.71-6.647-20.708-3.649-35.327,7.223c-11.217,8.342-60.289,61.205-60.289,61.205l-0.771,0.811l1.012-0.471l61.904-28.78
						c4.279-1.99,8.601-4.356,12.815-7.081C129.594,378.028,130.417,377.477,131.101,376.985z"/>
					<path style="fill:#FCB302;" d="M142.306,358.309c6.188-4.447,9.608-10.305,7.639-13.085c-1.969-2.779-8.658-1.526-14.77,3.02
						c-4.69,3.488-25.207,25.59-25.207,25.59l-0.322,0.339l0.423-0.197l25.882-12.033c1.789-0.832,3.596-1.821,5.358-2.961
						C141.676,358.745,142.019,358.515,142.306,358.309z"/>
				</g>
				<path style="fill:#FF6940;" d="M407.799,156.676L407.799,156.676c-0.386-0.544-0.259-1.308,0.281-1.696l27.518-19.777
					c0.541-0.389,1.298-0.261,1.684,0.284l0,0c0.386,0.544,0.259,1.307-0.281,1.696l-27.518,19.777
					C408.942,157.348,408.185,157.22,407.799,156.676z"/>
				<path style="fill:#FFFFFF;" d="M305.449,220.607v24.232c-1.31,0-2.61-0.213-3.849-0.639v-22.954
					C302.849,220.815,304.154,220.607,305.449,220.607z"/>
				<path style="fill:#FFFFFF;" d="M311.164,222.067v21.317c-0.583,0.317-1.181,0.582-1.795,0.79v-22.902
					C309.988,221.485,310.587,221.745,311.164,222.067z"/>
				<path style="fill:#FF6940;" d="M443.615,134.618c0,2.376-1.926,4.301-4.301,4.301c-2.375,0-4.301-1.926-4.301-4.301
					c0-2.375,1.926-4.301,4.301-4.301C441.689,130.317,443.615,132.243,443.615,134.618z"/>
			</g>
			<path style="fill:#FF6940;" d="M153.8,339.873L153.8,339.873c-1.747-2.466-1.173-5.923,1.275-7.682l58.037-41.709
				c2.448-1.759,5.88-1.182,7.627,1.284l0,0c1.747,2.466,1.173,5.923-1.275,7.682l-58.037,41.709
				C158.979,342.917,155.547,342.339,153.8,339.873z"/>
		</g>
		<g>
			<g>
				<path style="fill:#B53B26;" d="M226.763,113.782c1.446,1.456,4.477,6.151,5.626,7.995c2.359,3.787,2.115,7.146,1.708,8.786
					c2.124,0.767,6.51-0.377,8.634-1.142c2.124-0.766,3.965-2.291,5.111-4.236c0.313-0.531,0.574-1.089,0.836-1.647
					c0.321-0.684,0.641-1.368,0.962-2.053c-5.049-2.434-10.049-5.524-12.541-10.544c-1.31,0.571-3.288,1.197-4.598,1.769
					c-0.568,0.248-1.141,0.499-1.639,0.868C230.071,114.163,227.659,113.375,226.763,113.782z"/>
				<path style="fill:#211D21;" d="M292.792,159.811c0.157,0.268,18.573,22.316,12.471,35.012
					c-4.822,10.033-12.05,20.995-24.049,18.692c-8.611-1.653-14.743-11.898-19.61-19.164L292.792,159.811z"/>
				<path style="fill:#C8C0FC;" d="M286.168,141.663c3.858,6.534,7.172,13.419,10.061,20.461c0.988,2.406,1.943,4.964,1.524,7.646
					c-0.686,4.384-4.527,7.608-8.071,10.236c-4.39,3.257-8.967,6.249-13.638,9.085c-4.103,2.49-9.057,6.349-13.71,7.512
					c-4.356,1.088-7.529-1.941-9.846-4.797c-3.585-4.42-6.567-9.176-10.389-13.414c-3.982-4.414-8.631-8.255-13.213-12.092
					c-2.824-2.365-5.744-4.679-7.943-7.601c-2.199-2.922-5.19,4.204-4.676,0.416c0.491-3.617,4.244-17.756,6.807-20.636
					c7.62-8.56,18.376-13.724,28.38-19.464c3.46-1.985,7.275-4.159,11.025-3.602c2.859,0.425,5.046,2.373,6.982,4.321
					C275.98,126.293,281.477,133.719,286.168,141.663z"/>
			</g>
			<g>
				<path style="fill:#2D201B;" d="M225.784,106.369c1.58-0.814,3.458-0.032,4.287,1.371c0.83,1.402,0.815,3.237,0.513,4.961
					c-1.76-1.095-3.221-2.132-4.981-3.227c-0.661-0.411-1.405-1.049-1.152-1.864C224.595,107.151,225.357,106.589,225.784,106.369z"
					/>
				<path style="fill:#B53B26;" d="M237.957,108.257c0.038,0.05,0.074,0.1,0.11,0.151c0.018,0.026,0.036,0.052,0.054,0.078
					c0.011,0.016,0.022,0.032,0.033,0.049c0.034,0.05,0.066,0.1,0.097,0.15c0.009,0.015,0.019,0.03,0.028,0.046
					c0.045,0.074,0.089,0.15,0.13,0.226c0.044,0.081,0.086,0.162,0.126,0.245c0.014,0.029,0.028,0.058,0.041,0.088
					c0.008,0.018,0.016,0.035,0.024,0.054c0.033,0.071,0.063,0.142,0.091,0.215c0.071,0.175,0.132,0.352,0.184,0.532
					c0.013,0.043,0.025,0.087,0.036,0.13c0.104,0.392,0.165,0.792,0.185,1.194c0.004,0.087,0.006,0.174,0.007,0.26
					c0,0.047-0.001,0.093-0.001,0.14c-0.002,0.077-0.005,0.155-0.01,0.232c-0.011,0.189-0.032,0.377-0.062,0.564
					c-0.014,0.087-0.03,0.174-0.048,0.261c-0.073,0.354-0.179,0.7-0.318,1.036c-0.104,0.253-0.228,0.499-0.37,0.737
					c-0.031,0.052-0.063,0.104-0.096,0.155c-0.023,0.036-0.047,0.072-0.071,0.108c-0.013,0.02-0.026,0.039-0.039,0.059
					c-0.013,0.018-0.025,0.036-0.038,0.053c-0.04,0.057-0.081,0.113-0.123,0.168c-0.251,0.329-0.542,0.633-0.871,0.909
					c-0.073,0.06-0.145,0.118-0.22,0.175c-0.837,0.632-1.801,1-2.785,1.113c-1.854,0.213-3.779-0.478-5.059-2.009l-0.868-1.039
					l-2.553-3.056l-0.799-0.955l-1.102-1.319c-0.06-0.073-0.119-0.146-0.175-0.221c-0.028-0.037-0.055-0.074-0.082-0.112
					c-0.022-0.03-0.043-0.059-0.063-0.09c-0.021-0.03-0.042-0.061-0.061-0.091c-0.005-0.007-0.01-0.015-0.015-0.022
					c-0.013-0.019-0.025-0.038-0.037-0.057c-0.015-0.022-0.029-0.045-0.043-0.068c-0.009-0.013-0.017-0.028-0.026-0.042
					c-0.021-0.034-0.041-0.068-0.06-0.102c-0.017-0.029-0.033-0.058-0.049-0.087c-0.01-0.017-0.019-0.034-0.029-0.052
					c-0.037-0.068-0.072-0.137-0.106-0.206c-0.02-0.039-0.038-0.079-0.056-0.118c-0.017-0.036-0.033-0.073-0.049-0.11
					c-0.016-0.036-0.031-0.072-0.046-0.109c0-0.001-0.001-0.002-0.001-0.003c-0.015-0.036-0.029-0.073-0.044-0.11
					c-0.014-0.037-0.028-0.074-0.042-0.112c-0.013-0.037-0.027-0.075-0.039-0.112c-0.026-0.076-0.05-0.153-0.072-0.23
					c-0.004-0.015-0.008-0.03-0.012-0.044c-0.018-0.064-0.035-0.128-0.051-0.192c-0.004-0.015-0.007-0.03-0.011-0.045
					c-0.016-0.067-0.03-0.134-0.044-0.201c-0.002-0.011-0.004-0.021-0.006-0.032c-0.384-1.982,0.289-4.114,1.941-5.494
					c1.857-1.552,4.432-1.719,6.44-0.615c0.604,0.332,1.156,0.778,1.623,1.337l5.322,6.368
					C237.841,108.106,237.9,108.181,237.957,108.257z"/>
			</g>
			<g>
				<path style="fill:#211D21;" d="M229.426,108.507c-0.672-0.524-1.15-1.446-1.305-2.311c-0.748-0.238-1.576-0.219-2.337,0.172
					c-0.428,0.22-1.189,0.782-1.332,1.24c-0.254,0.816,0.491,1.453,1.152,1.864c1.76,1.095,3.22,2.133,4.98,3.227
					c0.206-1.177,0.27-2.403,0.031-3.511C230.188,109.022,229.784,108.786,229.426,108.507z"/>
				<path style="fill:#FFFFFF;" d="M237.957,108.257c-0.057-0.076-0.117-0.151-0.178-0.225l-1.357-1.624
					c-0.514,0.549-0.975,1.147-1.524,1.664c-0.801,0.754-1.595,1.233-2.694,1.354c-1.009,0.111-1.999-0.312-2.777-0.919
					c-0.773-0.603-1.29-1.733-1.354-2.694c-0.058-0.87,0.256-2.152,0.919-2.777c0.71-0.669,1.269-1.475,1.993-2.132
					c0.094-0.109,0.195-0.206,0.297-0.302c-0.145-0.098-0.294-0.19-0.447-0.273c-2.008-1.104-4.582-0.937-6.44,0.615
					c-1.651,1.38-2.325,3.512-1.941,5.494c0.002,0.011,0.004,0.021,0.006,0.032c0.014,0.067,0.028,0.134,0.044,0.201
					c0.004,0.015,0.007,0.03,0.011,0.045c0.016,0.064,0.033,0.128,0.051,0.192c0.004,0.015,0.008,0.03,0.012,0.044
					c0.023,0.077,0.046,0.154,0.072,0.23c0.013,0.038,0.026,0.076,0.039,0.113c0.014,0.038,0.028,0.075,0.042,0.112
					c0.015,0.037,0.029,0.073,0.044,0.11c0,0.001,0.001,0.002,0.001,0.003c0.015,0.036,0.03,0.073,0.046,0.109
					c0.016,0.037,0.032,0.074,0.049,0.11c0.018,0.039,0.037,0.079,0.056,0.118c0.033,0.07,0.068,0.138,0.106,0.206
					c0.009,0.018,0.019,0.035,0.028,0.052c0.016,0.029,0.032,0.059,0.049,0.087c0.02,0.034,0.04,0.068,0.06,0.102
					c0.008,0.014,0.017,0.028,0.026,0.042c0.014,0.023,0.028,0.046,0.043,0.068c0.012,0.019,0.024,0.038,0.037,0.057
					c0.004,0.007,0.009,0.015,0.015,0.022c0.02,0.031,0.04,0.062,0.061,0.091c0.02,0.03,0.041,0.06,0.063,0.09
					c0.027,0.037,0.055,0.075,0.082,0.112c0.056,0.074,0.115,0.148,0.175,0.221l1.102,1.319l0.799,0.955l2.553,3.056l0.868,1.039
					c1.279,1.531,3.205,2.222,5.059,2.009c0.984-0.113,1.949-0.48,2.785-1.113c0.074-0.056,0.147-0.114,0.22-0.175
					c0.329-0.275,0.62-0.58,0.871-0.909c0.043-0.055,0.083-0.111,0.123-0.168c0.013-0.018,0.025-0.035,0.038-0.053
					c0.013-0.019,0.027-0.039,0.039-0.059c0.025-0.035,0.048-0.072,0.071-0.108c0.033-0.051,0.065-0.102,0.096-0.155
					c0.142-0.238,0.265-0.484,0.37-0.737c0.139-0.335,0.245-0.682,0.318-1.036c0.018-0.086,0.034-0.173,0.048-0.261
					c0.03-0.187,0.051-0.375,0.062-0.564c0.005-0.077,0.008-0.154,0.01-0.232c0.001-0.047,0.001-0.093,0.001-0.14
					c0-0.086-0.003-0.173-0.007-0.26c-0.02-0.401-0.081-0.801-0.185-1.194c-0.012-0.043-0.024-0.087-0.036-0.13
					c-0.052-0.18-0.113-0.358-0.184-0.532c-0.029-0.073-0.059-0.144-0.092-0.215c-0.008-0.018-0.016-0.036-0.024-0.054
					c-0.014-0.029-0.027-0.058-0.042-0.088c-0.04-0.082-0.082-0.164-0.126-0.245c-0.041-0.076-0.085-0.151-0.13-0.226
					c-0.009-0.015-0.019-0.03-0.028-0.046c-0.031-0.051-0.063-0.101-0.097-0.15c-0.01-0.017-0.022-0.033-0.033-0.049
					c-0.018-0.026-0.036-0.052-0.054-0.078C238.032,108.357,237.995,108.307,237.957,108.257z"/>
				<path style="fill:#211D21;" d="M238.912,110.22c-0.012-0.043-0.024-0.087-0.036-0.13c-0.052-0.18-0.113-0.357-0.184-0.532
					c-0.029-0.073-0.059-0.144-0.092-0.215c-0.008-0.018-0.016-0.036-0.025-0.054c-0.013-0.029-0.027-0.058-0.041-0.088
					c-0.04-0.082-0.082-0.164-0.126-0.245c-0.004-0.007-0.008-0.013-0.011-0.02c-0.637,0.984-1.576,1.627-2.993,1.36
					c-0.489-0.092-0.541-0.815-0.136-1.04c0.6-0.333,1.023-0.82,1.359-1.414c0.139-0.246,0.254-0.502,0.352-0.767l-0.558-0.667
					c-0.514,0.549-0.975,1.147-1.524,1.664c-0.801,0.755-1.595,1.233-2.695,1.354c-1.009,0.111-1.999-0.312-2.777-0.919
					c-0.773-0.603-1.29-1.733-1.354-2.694c-0.058-0.87,0.255-2.152,0.919-2.777c0.71-0.669,1.269-1.475,1.993-2.132
					c0.094-0.109,0.195-0.206,0.297-0.302c-0.145-0.098-0.294-0.19-0.447-0.273c-2.008-1.104-4.582-0.937-6.44,0.615
					c-1.651,1.38-2.325,3.512-1.941,5.494c0.002,0.011,0.004,0.021,0.006,0.032c0.014,0.067,0.028,0.134,0.044,0.201
					c0.004,0.015,0.007,0.03,0.011,0.045c0.016,0.064,0.033,0.128,0.051,0.192c0.004,0.015,0.008,0.03,0.012,0.044
					c0.022,0.077,0.046,0.154,0.072,0.23c0.013,0.038,0.026,0.075,0.039,0.113c0.014,0.037,0.028,0.075,0.042,0.112
					c0.014,0.037,0.029,0.073,0.044,0.11c0,0.001,0.001,0.002,0.001,0.003c0.015,0.036,0.03,0.073,0.046,0.109
					c0.016,0.037,0.033,0.073,0.049,0.11c0.018,0.039,0.037,0.079,0.056,0.118c0.034,0.07,0.069,0.138,0.106,0.206
					c0.009,0.018,0.019,0.035,0.029,0.052c0.016,0.029,0.032,0.059,0.049,0.087c0.02,0.035,0.04,0.069,0.06,0.102
					c0.009,0.014,0.017,0.028,0.026,0.042c0.014,0.023,0.028,0.046,0.043,0.068c0.012,0.019,0.024,0.038,0.036,0.057
					c0.004,0.007,0.009,0.015,0.015,0.022c0.02,0.031,0.04,0.062,0.061,0.091c0.02,0.03,0.041,0.06,0.063,0.09
					c0.027,0.037,0.055,0.075,0.082,0.112c0.056,0.074,0.115,0.148,0.175,0.221l1.102,1.319l0.799,0.955l2.553,3.056l0.868,1.039
					c1.279,1.531,3.205,2.222,5.059,2.009c0.984-0.113,1.949-0.48,2.785-1.113c0.074-0.056,0.147-0.114,0.22-0.174
					c0.329-0.276,0.62-0.58,0.871-0.909c0.043-0.055,0.083-0.111,0.123-0.168c0.013-0.018,0.025-0.035,0.038-0.053
					c0.014-0.019,0.027-0.039,0.039-0.059c0.025-0.035,0.048-0.072,0.071-0.108c0.033-0.051,0.065-0.102,0.096-0.155
					c0.142-0.238,0.265-0.484,0.369-0.737c0.139-0.335,0.245-0.682,0.319-1.036c0.018-0.087,0.034-0.173,0.048-0.26
					c0.03-0.187,0.051-0.375,0.062-0.564c0.005-0.077,0.008-0.155,0.01-0.232c0.001-0.047,0.001-0.093,0.001-0.14
					c-0.001-0.086-0.003-0.173-0.007-0.26C239.078,111.013,239.016,110.613,238.912,110.22z"/>
			</g>
			<g>
				<g>
					<path style="fill:#B53B26;" d="M224.62,165.106l-37.005-12.65l-1.317-0.45c-1.181-0.404-2.135-1.174-2.777-2.139
						l-23.557-35.376c-0.978-1.469-0.58-3.453,0.889-4.431c1.256-0.837,2.891-0.665,3.949,0.321l31.106,28.963l-4.094-2.589
						l38.38,7.508c5.861,1.146,9.683,6.827,8.536,12.688c-1.146,5.861-6.827,9.683-12.688,8.536
						C225.574,165.395,225.061,165.253,224.62,165.106z"/>
				</g>
				<path style="fill:#B53B26;" d="M163.365,113.848c2.753-1.56,3.056-7.736,3.174-10.504c0.07-1.649-0.087-3.137-0.355-4.752
					l-2.542,0.428l-0.628-3.724L152.319,97.1c0.793,4.706,1.652,11.893,4.949,16.044c1.998,2.515,4.483,2.917,7.117,3.663
					L163.365,113.848z"/>
				
					<path style="fill:none;stroke:#2D1A14;stroke-width:0.5144;stroke-linecap:round;stroke-linejoin:round;stroke-miterlimit:10;" d="
					M165.001,98.791l-5.173,0.872c-0.49,1.058-1.589,1.692-2.75,2.075c-0.525,0.173-0.501,0.938,0.031,1.091
					c1.959,0.565,3.94,0.427,5.752-0.916c-2.151,1.358-2.654,3.806-2.212,6.133"/>
				
					<path style="fill:none;stroke:#2D1A14;stroke-width:0.5144;stroke-linecap:round;stroke-linejoin:round;stroke-miterlimit:10;" d="
					M160.422,107.736c-1.221-1.468-2.465-2.877-4.123-3.826"/>
			</g>
			<g>
				<path style="fill:#B53B26;" d="M291.844,124.078l23.975,3.539l-5.407,1.503l34.032-22.456c1.992-1.314,4.672-0.765,5.986,1.227
					c1.191,1.805,0.85,4.176-0.707,5.583l-30.229,27.362c-1.316,1.191-3.007,1.708-4.647,1.57l-0.76-0.067l-24.142-2.118
					c-4.473-0.392-7.781-4.337-7.389-8.81c0.392-4.473,4.337-7.781,8.81-7.389C291.52,124.035,291.695,124.057,291.844,124.078z"/>
			</g>
			<path style="fill:#C8C0FC;" d="M237.928,142.318c-9.816-8.883-26.784-2.989-37.97-9.497c1.98,10.152,3.079,18.544,6.55,28.438
				c7.142,4.557,20.397,8.391,28.922,7.652C239.054,161.981,245.286,152.727,237.928,142.318z"/>
			<path style="fill:#C8C0FC;" d="M259.373,116.467c4.494-3.462,15.556-0.118,20.988-0.107c5.367,0.01,11.156-0.085,16.391-0.996
				c2.312,8.465,1.681,23.341-2.012,31.405c-6.903,2.718-26.975,1.201-33.259-0.888L259.373,116.467z"/>
			<path style="fill:none;stroke:#2D1A14;stroke-width:0.5144;stroke-miterlimit:10;" d="M266.366,118.116
				c9.939,6.107,19.549,20.291,22.089,27.701c-1.472-6.846-2.91-14.113-5.958-20.405"/>
			<path style="fill:none;stroke:#2D1A14;stroke-width:0.5144;stroke-miterlimit:10;" d="M282.077,170.027
				c7.337,1.656,15.103-2.779,15.103-2.779s-7.987,0.441-11.056-2.864"/>
			<polyline style="fill:none;stroke:#2D1A14;stroke-width:0.5144;stroke-miterlimit:10;" points="220.404,152.996 227.624,164.26 
				222.253,145.943 			"/>
			<g>
				<path style="fill:#B53B26;" d="M339.02,110.931c-0.768-1.44,0.377-4.371,0.306-6.055c-0.029-0.707-1.042-3.21-0.759-3.757
					c0.684-1.321,1.923,0.722,2.349,1.404c0.863,1.381,0.798,2.725,0.78,4.254l7.531-5.168l6.585,9.597l-10.319,7.081
					c-1.95,1.338-5.469-2.307-4.606-4.893C340.225,112.767,339.472,111.78,339.02,110.931z"/>
				<path style="fill:#B53B26;" d="M345.162,108.075l9.973-6.843c1.237-0.849,1.818-2.17,1.292-2.937l0,0
					c-0.526-0.767-1.968-0.7-3.205,0.149l-9.973,6.843c-1.237,0.849-1.818,2.17-1.292,2.937l0,0
					C342.483,108.991,343.925,108.924,345.162,108.075z"/>
				<path style="fill:#B53B26;" d="M346.054,111.208l6.182-4.242c0.767-0.526,0.964-1.584,0.437-2.351l0,0
					c-0.526-0.767-1.584-0.964-2.351-0.438l-6.182,4.242c-0.767,0.526-0.964,1.584-0.438,2.351l0,0
					C344.23,111.537,345.287,111.734,346.054,111.208z"/>
				<path style="fill:#B53B26;" d="M347.801,113.753l6.182-4.242c0.767-0.526,0.964-1.584,0.437-2.351l0,0
					c-0.526-0.767-1.584-0.964-2.351-0.438l-6.182,4.242c-0.767,0.526-0.964,1.584-0.437,2.351l0,0
					C345.976,114.082,347.034,114.279,347.801,113.753z"/>
				<path style="fill:#B53B26;" d="M349.548,116.299l6.182-4.242c0.767-0.526,0.964-1.584,0.438-2.351l0,0
					c-0.526-0.767-1.584-0.964-2.351-0.437l-6.182,4.242c-0.767,0.526-0.964,1.584-0.437,2.351l0,0
					C347.723,116.628,348.781,116.825,349.548,116.299z"/>
			</g>
			
				<line style="fill:none;stroke:#2D1A14;stroke-width:0.5144;stroke-linecap:round;stroke-linejoin:round;stroke-miterlimit:10;" x1="344.141" y1="108.42" x2="347.635" y2="113.511"/>
			
				<path style="fill:none;stroke:#2D1A14;stroke-width:0.5144;stroke-linecap:round;stroke-linejoin:round;stroke-miterlimit:10;" d="
				M343.916,115.479c0,0,2.077-1.238,1.972-4.514"/>
			<path style="fill:#B53B26;" d="M224.16,115.957c1.202,1.438,3.341,1.629,4.779,0.428c1.438-1.202,1.629-3.341,0.428-4.779
				c-1.202-1.438-3.341-1.629-4.779-0.428C223.15,112.38,222.958,114.52,224.16,115.957z"/>
			<path style="fill:#211D21;" d="M231.165,108.379c0.047,0.542-0.062,1.179-0.535,1.447c-0.759,0.431-1.584-0.406-2.404-0.705
				c-1.407-0.514-2.853,0.629-4.342,0.799c-1.464,0.167-2.985-0.744-3.528-2.114c-0.543-1.37-0.06-3.076,1.122-3.957
				c-1.295-1.462-1.553-3.752-0.614-5.466c1.186-2.166,3.798-3.079,5.553-4.816c2.07-2.048,2.805-5.135,2.701-8.044
				c-0.104-2.91-0.942-5.734-1.595-8.572c-0.653-2.837-1.124-5.804-0.491-8.646c2.18-9.789,15.945-12.04,21.054-3.275
				c6.366,10.919-1.96,27.181-11.387,33.478c-1.408,0.94-2.883,1.77-4.294,2.704c-0.396,0.262-4.323,3.377-4.333,3.372
				C229.609,105.418,230.997,106.457,231.165,108.379z"/>
		</g>
		<path style="fill:#211D21;" d="M261.956,196.459c2.406,5.277,4.86,10.629,8.625,15.04c7.778,9.111,22.641,10.202,32.702,4.614
			c20.434-11.349,30.683-18.885,45.978-29.912c-11.433,26.182-21.874,45.184-33.307,71.366c5.03,2.379,10.192,4.428,15.754,4.615
			c14.263-23.194,27.986-47.583,40.116-71.96c2.136-4.292,4.295-8.919,3.685-13.674c-0.801-6.242-6.404-11.058-12.486-12.67
			c-6.083-1.612-12.543-0.604-18.655,0.892c-20.276,4.962-39.002,15.158-55.663,27.734
			C281.257,190.934,269.388,194.817,261.956,196.459z"/>
		<g>
			<path style="fill:#211D21;" d="M332.601,256.731c-3.268,4.816-3.459,11.607-0.454,16.095c2.037,3.042,5.228,4.913,7.852,7.384
				c5.119,4.821,8.044,12.16,7.868,19.734l-40.788-20.032l14.261-29.21L332.601,256.731z"/>
			<path style="fill:#211D21;" d="M339.999,280.21c-2.623-2.471-5.814-4.341-7.852-7.384c-1.742-2.601-2.41-5.975-2.028-9.29
				c-1.438,0.885-2.858,1.805-4.331,2.615c-1.426,0.785-2.935,1.483-4.502,1.715c-1.575,0.233-3.075-0.132-4.307-1.077
				c-0.908-0.696-1.613-1.641-2.183-2.683l-7.717,15.806l40.788,20.032C348.044,292.37,345.118,285.031,339.999,280.21z"/>
			<path style="fill:#211D21;" d="M345.689,301.849l-39.535-19.416c-1.177-0.578-1.661-2.034-1.074-3.236l0.09-0.185
				c0.587-1.201,2.03-1.711,3.207-1.133l39.535,19.416c1.177,0.578,1.661,2.034,1.074,3.236l-0.09,0.185
				C348.31,301.918,346.866,302.428,345.689,301.849z"/>
			
				<path style="fill:none;stroke:#F5F5F3;stroke-width:0.8628;stroke-linecap:round;stroke-linejoin:round;stroke-miterlimit:10;" d="
				M344.04,294.205c0,0-2.113-8.113-8.636-12.822"/>
			
				<path style="fill:none;stroke:#F5F5F3;stroke-width:0.8628;stroke-linecap:round;stroke-linejoin:round;stroke-miterlimit:10;" d="
				M327.976,274.053c0,0-3.707-7.279-1.902-11.019"/>
		</g>
		
			<path style="fill:none;stroke:#F5F5F3;stroke-width:0.8003;stroke-linecap:round;stroke-linejoin:round;stroke-miterlimit:10;" d="
			M308.076,180.82c-7.514,3.222-14.4,7.902-20.16,13.703"/>
		
			<path style="fill:none;stroke:#F5F5F3;stroke-width:0.8003;stroke-linecap:round;stroke-linejoin:round;stroke-miterlimit:10;" d="
			M410.34,151.737c0,0-20.076,1.247-36.314,12.647"/>
		
			<line style="fill:none;stroke:#F5F5F3;stroke-width:0.8003;stroke-linecap:round;stroke-linejoin:round;stroke-miterlimit:10;" x1="152.788" y1="286.634" x2="192.964" y2="254.975"/>
	</g>
	<path style="fill:#C9C7FF;" d="M149.007,140.541l-70.15,53.867c-1.7,1.305-4.159,0.982-5.464-0.717l0,0
		c-1.305-1.7-0.982-4.159,0.717-5.464l70.15-53.867c1.7-1.305,4.159-0.982,5.464,0.717h0
		C151.029,136.777,150.707,139.236,149.007,140.541z"/>
	<path style="fill:#C9C7FF;" d="M108.729,125.528l-70.15,53.867c-1.7,1.305-4.159,0.982-5.464-0.717l0,0
		c-1.305-1.7-0.982-4.159,0.717-5.464l70.15-53.867c1.7-1.305,4.159-0.982,5.464,0.717l0,0
		C110.752,121.764,110.429,124.223,108.729,125.528z"/>
	<path style="fill:#C9C7FF;" d="M348.394,143.469l-23.631,18.146c-0.788,0.605-1.927,0.455-2.531-0.332l-0.451-0.587
		c-0.605-0.788-0.455-1.927,0.332-2.531l23.631-18.146c0.788-0.605,1.927-0.455,2.531,0.332l0.451,0.587
		C349.331,141.725,349.181,142.865,348.394,143.469z"/>
	<path style="fill:#C9C7FF;" d="M417.248,413.94l-23.631,18.146c-0.788,0.605-1.927,0.455-2.531-0.332l-0.451-0.587
		c-0.605-0.788-0.455-1.927,0.332-2.531l23.631-18.146c0.788-0.605,1.927-0.455,2.531,0.332l0.451,0.587
		C418.185,412.197,418.036,413.336,417.248,413.94z"/>
	<path style="fill:#C9C7FF;" d="M84.421,322.838L60.79,340.984c-0.787,0.605-1.927,0.455-2.531-0.332l-0.451-0.587
		c-0.605-0.788-0.455-1.927,0.332-2.531l23.631-18.146c0.788-0.605,1.927-0.455,2.531,0.332l0.451,0.587
		C85.358,321.094,85.208,322.233,84.421,322.838z"/>
	<path style="fill:#E5E3FC;" d="M120.135,275.251l-70.15,53.867c-1.7,1.305-4.159,0.982-5.464-0.717l0,0
		c-1.305-1.7-0.982-4.159,0.717-5.464l70.15-53.867c1.7-1.305,4.159-0.982,5.464,0.717l0,0
		C122.158,271.487,121.835,273.946,120.135,275.251z"/>
	<path style="fill:#E5E3FC;" d="M259.797,184.082l-70.15,53.867c-1.7,1.305-4.159,0.983-5.464-0.717l0,0
		c-1.305-1.7-0.982-4.159,0.717-5.464l70.15-53.867c1.7-1.305,4.159-0.982,5.464,0.717l0,0
		C261.819,180.318,261.496,182.777,259.797,184.082z"/>
	<g>
		<g>
			<path style="fill:#8B7FF7;" d="M191.741,232.78l-89.056,61.053c-5.511,3.778-13.106,2.968-16.963-1.81l-31.899-39.515
				c-3.857-4.778-2.516-11.715,2.995-15.493l89.056-61.053c5.511-3.778,13.106-2.968,16.963,1.81l31.899,39.515
				C198.593,222.066,197.252,229.002,191.741,232.78z"/>
			<path style="fill:#191319;" d="M96.938,228.877c5.562,0.909,11.367,0.671,16.835-1.245c6.614-2.318,11.986-6.674,16.361-11.706
				c0.987-1.135,2.994-1.487,4.183-0.579c4.254,3.247,9.361,5.191,15.018,5.729c10.457,0.995,21.394-2.439,30.641-7.259
				c2.766-1.442,5.476-3.051,8.068-4.819l-25.208-31.227c-3.857-4.778-11.452-5.589-16.963-1.81l-67.102,46.002
				C84.311,225.279,90.414,227.81,96.938,228.877z"/>
			<path style="fill:#F9A813;" d="M117.748,266.926l-21.572,14.789c-1.121,0.768-2.666,0.604-3.45-0.368l-9.433-11.685
				c-0.785-0.972-0.512-2.383,0.609-3.151l21.572-14.789c1.121-0.768,2.666-0.604,3.45,0.368l9.433,11.685
				C119.142,264.746,118.869,266.157,117.748,266.926z"/>
			<path style="fill:#FFC05A;" d="M92.708,263.047c4.191,0.942,8.945,1.287,13.308,0.427c2.567-0.506,4.801-1.441,7.443-1.004
				c1.79,0.296,3.422,0.942,5.071,1.556c-0.051-0.086-0.106-0.171-0.171-0.252l-9.433-11.685c-0.785-0.972-2.329-1.137-3.45-0.368
				l-15.462,10.6C90.96,262.626,91.889,262.863,92.708,263.047z"/>
			
				<path style="fill:none;stroke:#BC5406;stroke-width:0.753;stroke-linecap:round;stroke-linejoin:round;stroke-miterlimit:10;" d="
				M104.745,271.885L104.745,271.885c-1.249,0.856-2.986,0.671-3.861-0.412l-5.45-6.751c-0.874-1.083-0.567-2.67,0.682-3.526l0,0
				c1.249-0.856,2.986-0.671,3.861,0.412l5.45,6.751C106.3,269.442,105.994,271.029,104.745,271.885z"/>
			<g>
				<path style="fill:#BC5406;" d="M95.921,265.481l-7.3,5.005c-0.134,0.092-0.32,0.072-0.414-0.044h0
					c-0.094-0.116-0.061-0.286,0.073-0.378l7.3-5.005c0.134-0.092,0.32-0.072,0.414,0.044l0,0
					C96.088,265.219,96.055,265.389,95.921,265.481z"/>
				<path style="fill:#BC5406;" d="M98.419,268.575l-7.3,5.005c-0.134,0.092-0.32,0.072-0.414-0.044l0,0
					c-0.094-0.116-0.061-0.286,0.073-0.378l7.3-5.005c0.134-0.092,0.32-0.072,0.414,0.044l0,0
					C98.585,268.313,98.552,268.483,98.419,268.575z"/>
				<path style="fill:#BC5406;" d="M100.916,271.669l-7.3,5.005c-0.134,0.092-0.32,0.072-0.414-0.044l0,0
					c-0.094-0.116-0.061-0.286,0.073-0.378l7.3-5.005c0.134-0.092,0.32-0.072,0.414,0.044l0,0
					C101.083,271.408,101.05,271.578,100.916,271.669z"/>
			</g>
			<g>
				<path style="fill:#BC5406;" d="M107.926,257.251l-7.3,5.005c-0.134,0.092-0.32,0.072-0.414-0.044l0,0
					c-0.094-0.116-0.061-0.286,0.073-0.378l7.3-5.005c0.134-0.092,0.32-0.072,0.414,0.044l0,0
					C108.092,256.99,108.059,257.159,107.926,257.251z"/>
				<path style="fill:#BC5406;" d="M110.423,260.345l-7.3,5.005c-0.134,0.092-0.32,0.072-0.414-0.044l0,0
					c-0.094-0.116-0.061-0.286,0.073-0.378l7.3-5.005c0.134-0.092,0.32-0.072,0.414,0.044l0,0
					C110.59,260.084,110.557,260.254,110.423,260.345z"/>
				<path style="fill:#BC5406;" d="M112.921,263.439l-7.3,5.005c-0.134,0.092-0.32,0.072-0.414-0.044l0,0
					c-0.094-0.116-0.061-0.286,0.073-0.378l7.3-5.005c0.134-0.092,0.32-0.072,0.414,0.044l0,0
					C113.088,263.178,113.055,263.348,112.921,263.439z"/>
			</g>
			<g>
				
					<path style="fill:none;stroke:#FFFFFF;stroke-width:0.753;stroke-linecap:round;stroke-linejoin:round;stroke-miterlimit:10;" d="
					M127.909,263.432L127.909,263.432c-0.803,0.551-1.92,0.431-2.482-0.265l-2.271-2.813c-0.562-0.696-0.365-1.716,0.438-2.267l0,0
					c0.803-0.55,1.92-0.431,2.482,0.265l2.271,2.813C128.91,261.862,128.712,262.882,127.909,263.432z"/>
				
					<path style="fill:none;stroke:#FFFFFF;stroke-width:0.753;stroke-linecap:round;stroke-linejoin:round;stroke-miterlimit:10;" d="
					M132.776,260.096L132.776,260.096c-0.803,0.551-1.92,0.431-2.482-0.265l-2.271-2.813c-0.562-0.696-0.365-1.716,0.438-2.267l0,0
					c0.803-0.551,1.92-0.431,2.482,0.265l2.271,2.813C133.776,258.525,133.579,259.545,132.776,260.096z"/>
				
					<path style="fill:none;stroke:#FFFFFF;stroke-width:0.753;stroke-linecap:round;stroke-linejoin:round;stroke-miterlimit:10;" d="
					M137.643,256.759L137.643,256.759c-0.803,0.551-1.92,0.431-2.482-0.265l-2.271-2.813c-0.562-0.696-0.365-1.716,0.438-2.267l0,0
					c0.803-0.55,1.92-0.431,2.482,0.265l2.271,2.813C138.643,255.189,138.446,256.209,137.643,256.759z"/>
				
					<path style="fill:none;stroke:#FFFFFF;stroke-width:0.753;stroke-linecap:round;stroke-linejoin:round;stroke-miterlimit:10;" d="
					M142.51,253.423L142.51,253.423c-0.803,0.551-1.92,0.431-2.482-0.265l-2.271-2.813c-0.562-0.696-0.365-1.716,0.438-2.267l0,0
					c0.803-0.55,1.92-0.431,2.482,0.265l2.271,2.813C143.51,251.852,143.313,252.872,142.51,253.423z"/>
			</g>
			<g>
				
					<path style="fill:none;stroke:#FFFFFF;stroke-width:0.753;stroke-linecap:round;stroke-linejoin:round;stroke-miterlimit:10;" d="
					M149.323,248.752L149.323,248.752c-0.803,0.55-1.92,0.431-2.482-0.265l-2.271-2.813c-0.562-0.696-0.365-1.716,0.438-2.267l0,0
					c0.803-0.55,1.92-0.431,2.482,0.265l2.271,2.813C150.323,247.181,150.126,248.201,149.323,248.752z"/>
				
					<path style="fill:none;stroke:#FFFFFF;stroke-width:0.753;stroke-linecap:round;stroke-linejoin:round;stroke-miterlimit:10;" d="
					M154.19,245.415L154.19,245.415c-0.803,0.55-1.92,0.431-2.482-0.265l-2.271-2.813c-0.562-0.696-0.365-1.716,0.438-2.267l0,0
					c0.803-0.551,1.92-0.431,2.482,0.265l2.271,2.813C155.19,243.845,154.993,244.865,154.19,245.415z"/>
				
					<path style="fill:none;stroke:#FFFFFF;stroke-width:0.753;stroke-linecap:round;stroke-linejoin:round;stroke-miterlimit:10;" d="
					M159.057,242.079L159.057,242.079c-0.803,0.551-1.92,0.431-2.482-0.265l-2.271-2.813c-0.562-0.696-0.365-1.716,0.438-2.267l0,0
					c0.803-0.55,1.92-0.431,2.482,0.265l2.271,2.813C160.057,240.508,159.86,241.529,159.057,242.079z"/>
				
					<path style="fill:none;stroke:#FFFFFF;stroke-width:0.753;stroke-linecap:round;stroke-linejoin:round;stroke-miterlimit:10;" d="
					M163.923,238.743L163.923,238.743c-0.803,0.551-1.92,0.431-2.482-0.265l-2.271-2.813c-0.562-0.696-0.365-1.716,0.438-2.267l0,0
					c0.803-0.551,1.92-0.431,2.482,0.265l2.271,2.813C164.923,237.172,164.726,238.192,163.923,238.743z"/>
			</g>
			<g>
				
					<path style="fill:none;stroke:#FFFFFF;stroke-width:0.753;stroke-linecap:round;stroke-linejoin:round;stroke-miterlimit:10;" d="
					M171.061,233.849L171.061,233.849c-0.803,0.55-1.92,0.431-2.482-0.265l-2.271-2.813c-0.562-0.696-0.365-1.716,0.438-2.267l0,0
					c0.803-0.55,1.92-0.431,2.482,0.265l2.271,2.813C172.061,232.279,171.864,233.299,171.061,233.849z"/>
				
					<path style="fill:none;stroke:#FFFFFF;stroke-width:0.753;stroke-linecap:round;stroke-linejoin:round;stroke-miterlimit:10;" d="
					M175.928,230.513L175.928,230.513c-0.803,0.551-1.92,0.431-2.482-0.265l-2.271-2.813c-0.562-0.696-0.365-1.716,0.438-2.267l0,0
					c0.803-0.55,1.92-0.431,2.482,0.265l2.271,2.813C176.928,228.942,176.731,229.962,175.928,230.513z"/>
				
					<path style="fill:none;stroke:#FFFFFF;stroke-width:0.753;stroke-linecap:round;stroke-linejoin:round;stroke-miterlimit:10;" d="
					M180.795,227.176L180.795,227.176c-0.803,0.551-1.92,0.431-2.482-0.265l-2.271-2.813c-0.562-0.696-0.365-1.716,0.438-2.267h0
					c0.803-0.551,1.92-0.431,2.482,0.265l2.271,2.813C181.795,225.606,181.598,226.626,180.795,227.176z"/>
				
					<path style="fill:none;stroke:#FFFFFF;stroke-width:0.753;stroke-linecap:round;stroke-linejoin:round;stroke-miterlimit:10;" d="
					M185.661,223.84L185.661,223.84c-0.803,0.551-1.92,0.431-2.482-0.265l-2.271-2.813c-0.562-0.696-0.365-1.716,0.438-2.267l0,0
					c0.803-0.55,1.92-0.431,2.482,0.265l2.271,2.813C186.662,222.269,186.464,223.289,185.661,223.84z"/>
			</g>
			<g>
				
					<path style="fill:none;stroke:#FFFFFF;stroke-width:0.753;stroke-linecap:round;stroke-linejoin:round;stroke-miterlimit:10;" d="
					M115.513,248.667c1.877,0.377,3.12,2.268,2.629,4"/>
				
					<path style="fill:none;stroke:#FFFFFF;stroke-width:0.753;stroke-linecap:round;stroke-linejoin:round;stroke-miterlimit:10;" d="
					M117.678,244.667c3.222,0.648,5.356,3.894,4.513,6.866"/>
				
					<path style="fill:none;stroke:#FFFFFF;stroke-width:0.753;stroke-linecap:round;stroke-linejoin:round;stroke-miterlimit:10;" d="
					M120.485,241.432c4.353,0.875,7.235,5.26,6.097,9.276"/>
			</g>
			
				<path style="fill:none;stroke:#8B7FF7;stroke-width:1.1296;stroke-linecap:round;stroke-linejoin:round;stroke-miterlimit:10;" d="
				M151.601,186.018l-39.907,27.359c-1.338,0.917-3.2,0.719-4.136-0.441l0,0c-0.937-1.16-0.608-2.86,0.73-3.778l39.907-27.359
				c1.338-0.918,3.2-0.719,4.136,0.441l0,0C153.268,183.4,152.939,185.1,151.601,186.018z"/>
		</g>
		<path style="fill:none;stroke:#FFFFFF;stroke-width:0.753;stroke-linecap:round;stroke-linejoin:round;stroke-miterlimit:10;" d="
			M84.583,236.271l-19.467,13.346c-1.517,1.04-3.626,0.815-4.688-0.5l0,0c-1.061-1.315-0.689-3.242,0.828-4.282l19.467-13.346
			c1.517-1.04,3.626-0.815,4.688,0.5l0,0C86.472,233.304,86.099,235.231,84.583,236.271z"/>
	</g>
	<path style="fill:#E5E3FC;" d="M100.246,319.016c0,2.149-1.742,3.891-3.891,3.891c-2.149,0-3.891-1.742-3.891-3.891
		c0-2.149,1.742-3.891,3.891-3.891C98.504,315.125,100.246,316.867,100.246,319.016z"/>
	<circle style="fill:#E5E3FC;" cx="72.907" cy="114.048" r="3.891"/>
	<circle style="fill:#E5E3FC;" cx="356.621" cy="134.978" r="3.891"/>
	<circle style="fill:#E5E3FC;" cx="87.088" cy="138.919" r="3.891"/>
	<circle style="fill:#E5E3FC;" cx="52.985" cy="380.291" r="3.891"/>
	<circle style="fill:#E5E3FC;" cx="426.432" cy="403.903" r="3.891"/>
	<circle style="fill:#E5E3FC;" cx="199.958" cy="178.177" r="2.011"/>
	<path style="fill:#E5E3FC;" d="M206.683,195.501c0,0.986-0.799,1.785-1.785,1.785s-1.785-0.799-1.785-1.785
		c0-0.986,0.799-1.785,1.785-1.785S206.683,194.515,206.683,195.501z"/>
	<circle style="fill:#E5E3FC;" cx="365.353" cy="248.452" r="1.819"/>
	<circle style="fill:#E5E3FC;" cx="412.308" cy="225.362" r="1.969"/>
	<circle style="fill:#E5E3FC;" cx="104.482" cy="408.322" r="1.969"/>
	<path style="fill:#E5E3FC;" d="M467.11,289.463c0,2.13-1.727,3.857-3.857,3.857c-2.13,0-3.857-1.727-3.857-3.857
		c0-2.13,1.727-3.857,3.857-3.857C465.383,285.606,467.11,287.333,467.11,289.463z"/>
	
		<rect x="94.624" y="102.082" transform="matrix(0.593 0.8052 -0.8052 0.593 158.4355 -38.4089)" style="fill:#191319;" width="45.174" height="70.872"/>
	<g>
		<path style="fill:#191319;" d="M161.738,102.319c-0.151,0.073-0.301,0.147-0.452,0.221c1.929,2.809,1.299,6.673-1.465,8.709
			l-18.078,13.313c-2.821,2.078-6.807,1.473-8.885-1.349v0c-1.002-1.361-1.414-3.037-1.158-4.721
			c0.255-1.683,1.146-3.163,2.507-4.165l18.077-13.313c1.097-0.808,2.399-1.232,3.745-1.232c0.042,0,0.083,0.004,0.125,0.005
			c-0.013-0.347-0.036-0.692-0.074-1.038c-1.584-0.011-3.121,0.474-4.413,1.426l-18.077,13.313
			c-1.585,1.167-2.621,2.888-2.918,4.847c-0.297,1.959,0.182,3.91,1.349,5.495c1.449,1.966,3.692,3.007,5.965,3.007
			c1.523,0,3.059-0.468,4.377-1.438l18.077-13.313c3.169-2.334,3.926-6.731,1.804-9.988
			C161.999,102.213,161.869,102.274,161.738,102.319z"/>
	</g>
	<polygon style="fill:#6E55FF;" points="151.216,123.964 149.424,133.76 159.13,134.726 	"/>
	
		<line style="fill:none;stroke:#FFFFFF;stroke-width:0.4858;stroke-linecap:round;stroke-linejoin:round;stroke-miterlimit:10;" x1="150.478" y1="123.877" x2="95.036" y2="164.707"/>
	
		<polyline style="fill:none;stroke:#FFFFFF;stroke-width:0.4858;stroke-linecap:round;stroke-linejoin:round;stroke-miterlimit:10;" points="
		98.159,165.876 105.81,165.821 148.931,134.064 	"/>
	
		<line style="fill:none;stroke:#FFFFFF;stroke-width:0.4858;stroke-linecap:round;stroke-linejoin:round;stroke-miterlimit:10;" x1="103.154" y1="173.386" x2="105.81" y2="165.821"/>
	<rect x="124.104" y="437.4" style="fill:#7F6BF4;" width="45.816" height="23.245"/>
	<g>
		<rect x="334.926" y="313.025" style="fill:#7F6BF4;" width="45.816" height="150.636"/>
		<rect x="263.473" y="360.345" style="fill:#7F6BF4;" width="45.816" height="101.734"/>
		<rect x="189.887" y="422.339" style="fill:#7F6BF4;" width="45.816" height="39.74"/>
		<path style="fill:#211D1D;" d="M364.061,346.046c-6.991,2.613-12.743,7.685-17.527,13.339
			c-4.377,5.172-8.117,10.814-11.607,16.633v87.643h45.816V344.5C375.151,343.698,369.46,344.028,364.061,346.046z"/>
		<path style="fill:#211D1D;" d="M304.935,421.397c-6.917,6.593-15.028,10.467-24.497,11.782c-5.638,0.783-11.299,0.86-16.965,0.639
			v28.262h45.815v-45.26C307.906,418.409,306.46,419.943,304.935,421.397z"/>
		<path style="fill:#211D1D;" d="M219.546,432.516c-5.113,0.376-10.293,1.124-14.932,3.454c-5.178,2.601-9.43,6.925-12.85,11.568
			c-0.638,0.866-1.262,1.746-1.877,2.633v11.909h45.816v-30.042C230.317,431.91,224.913,432.121,219.546,432.516z"/>
		<rect x="124.104" y="438.608" style="fill:#211D1D;" width="45.816" height="23.471"/>
	</g>
	<g>
		<g>
			<g>
				
					<ellipse transform="matrix(0.7717 -0.6359 0.6359 0.7717 -58.1439 341.3904)" style="fill:#FAC119;" cx="446.496" cy="251.691" rx="38.153" ry="26.611"/>
				
					<ellipse transform="matrix(0.7717 -0.6359 0.6359 0.7717 -56.2161 338.0621)" style="fill:#F9A41C;" cx="442.825" cy="247.342" rx="38.086" ry="28.162"/>
				
					<ellipse transform="matrix(0.7717 -0.6359 0.6359 0.7717 -58.1439 341.3904)" style="fill:#FAC119;" cx="446.496" cy="251.691" rx="38.153" ry="26.611"/>
				<path style="fill:#FFCE55;" d="M422.18,250.392c-2.342-0.077-4.696-0.125-7.053-0.163c-3.884,9.506-3.533,19.102,1.924,25.725
					c9.346,11.342,30.105,9.674,46.367-3.726c6.738-5.552,11.639-12.247,14.413-18.991
					C459.295,252.253,440.868,251.004,422.18,250.392z"/>
				<path style="fill:#F9A41C;" d="M458.938,266.791c-11.956,9.852-27.219,11.078-34.09,2.739
					c-6.871-8.339-2.75-23.086,9.206-32.938c11.956-9.852,27.219-11.078,34.09-2.739
					C475.015,242.192,470.894,256.939,458.938,266.791z"/>
				<g>
					<path style="fill:#34304F;" d="M437.205,259.564l-2.725,2.246l-0.681-0.826l2.701-2.226c-1.215-1.717-1.615-3.94-1.098-5.726
						l1.746-0.634c-0.44,1.639-0.157,3.625,0.868,5.11l6.233-5.136c-0.858-2.345-1.577-4.86,1.551-7.437
						c2.275-1.875,5.181-2.355,7.549-0.061l2.725-2.245l0.681,0.826l-2.702,2.226c0.95,1.298,1.45,2.967,1.295,4.565l-1.738,0.739
						c0.09-1.629-0.331-3.057-1.05-4.074l-6.28,5.175c0.898,2.395,1.761,4.986-1.415,7.602
						C442.568,261.582,439.583,262.016,437.205,259.564z M443.777,258.559c1.872-1.543,1.518-3.276,0.845-5.107l-5.925,4.882
						C440.385,259.995,442.261,259.809,443.777,258.559z M445.908,251.005l5.924-4.882c-1.615-1.526-3.498-1.252-4.991-0.021
						C445.04,247.586,445.289,249.24,445.908,251.005z"/>
				</g>
			</g>
			<g>
				
					<line style="fill:none;stroke:#211D1D;stroke-width:0.3212;stroke-miterlimit:10;" x1="450.09" y1="220.194" x2="448.709" y2="228.862"/>
				
					<line style="fill:none;stroke:#211D1D;stroke-width:0.3212;stroke-miterlimit:10;" x1="460.263" y1="219.382" x2="456.656" y2="228.218"/>
				
					<line style="fill:none;stroke:#211D1D;stroke-width:0.3212;stroke-miterlimit:10;" x1="469.057" y1="222.18" x2="463.578" y2="230.7"/>
			</g>
			<g>
				
					<line style="fill:none;stroke:#211D1D;stroke-width:0.3212;stroke-miterlimit:10;" x1="447.923" y1="281.557" x2="447.978" y2="273.221"/>
				
					<line style="fill:none;stroke:#211D1D;stroke-width:0.3212;stroke-miterlimit:10;" x1="437.464" y1="283.741" x2="439.809" y2="274.937"/>
				
					<line style="fill:none;stroke:#211D1D;stroke-width:0.3212;stroke-miterlimit:10;" x1="427.864" y1="282.341" x2="432.209" y2="273.572"/>
			</g>
		</g>
	</g>
	<g>
		<g>
			<g>
				<path style="fill:#FAC119;" d="M440.774,367.59c-6.11,5.035-13.909,5.661-17.421,1.4c-3.512-4.261-1.405-11.797,4.705-16.832
					c6.11-5.035,13.91-5.661,17.421-1.4C448.99,355.02,446.884,362.556,440.774,367.59z"/>
				<path style="fill:#F9A41C;" d="M439.766,366.406c-6.099,5.026-14.056,5.444-17.772,0.934c-3.716-4.51-1.784-12.24,4.315-17.266
					c6.099-5.026,14.056-5.444,17.772-0.934C447.796,353.65,445.865,361.38,439.766,366.406z"/>
				<path style="fill:#FAC119;" d="M440.774,367.59c-6.11,5.035-13.909,5.661-17.421,1.4c-3.512-4.261-1.405-11.797,4.705-16.832
					c6.11-5.035,13.91-5.661,17.421-1.4C448.99,355.02,446.884,362.556,440.774,367.59z"/>
				<path style="fill:#FFCE55;" d="M425.28,359.386c-0.88-0.029-1.764-0.047-2.65-0.061c-1.46,3.572-1.328,7.177,0.723,9.665
					c3.512,4.262,11.311,3.635,17.421-1.4c2.531-2.086,4.373-4.601,5.415-7.135C439.225,360.085,432.302,359.616,425.28,359.386z"/>
				<path style="fill:#F9A41C;" d="M439.091,365.547c-4.492,3.702-10.227,4.162-12.808,1.029c-2.582-3.133-1.033-8.674,3.459-12.375
					c4.492-3.702,10.227-4.162,12.808-1.029C445.131,356.305,443.583,361.845,439.091,365.547z"/>
				<g>
					<path style="fill:#34304F;" d="M430.926,362.832l-1.023,0.844l-0.256-0.311l1.015-0.836c-0.457-0.645-0.607-1.481-0.413-2.152
						l0.656-0.238c-0.165,0.616-0.059,1.362,0.327,1.921l2.342-1.93c-0.323-0.881-0.593-1.826,0.582-2.795
						c0.855-0.704,1.947-0.884,2.836-0.022l1.024-0.844l0.256,0.311l-1.015,0.837c0.357,0.488,0.545,1.115,0.487,1.715l-0.653,0.278
						c0.034-0.612-0.125-1.149-0.394-1.531l-2.359,1.944c0.338,0.9,0.662,1.873-0.531,2.856
						C432.941,363.591,431.819,363.754,430.926,362.832z M433.395,362.456c0.704-0.579,0.57-1.231,0.318-1.919l-2.226,1.834
						C432.12,362.995,432.826,362.925,433.395,362.456z M434.195,359.617l2.226-1.834c-0.607-0.573-1.314-0.47-1.876-0.008
						C433.869,358.332,433.963,358.953,434.195,359.617z"/>
				</g>
			</g>
			<g>
				
					<line style="fill:none;stroke:#211D1D;stroke-width:0.1207;stroke-miterlimit:10;" x1="435.766" y1="348.04" x2="435.247" y2="351.297"/>
				
					<line style="fill:none;stroke:#211D1D;stroke-width:0.1207;stroke-miterlimit:10;" x1="439.589" y1="347.735" x2="438.233" y2="351.054"/>
				
					<line style="fill:none;stroke:#211D1D;stroke-width:0.1207;stroke-miterlimit:10;" x1="442.893" y1="348.786" x2="440.834" y2="351.987"/>
			</g>
			<g>
				
					<line style="fill:none;stroke:#211D1D;stroke-width:0.1207;stroke-miterlimit:10;" x1="434.952" y1="371.095" x2="434.973" y2="367.963"/>
				
					<line style="fill:none;stroke:#211D1D;stroke-width:0.1207;stroke-miterlimit:10;" x1="431.023" y1="371.916" x2="431.904" y2="368.608"/>
				
					<line style="fill:none;stroke:#211D1D;stroke-width:0.1207;stroke-miterlimit:10;" x1="427.416" y1="371.39" x2="429.048" y2="368.095"/>
			</g>
		</g>
	</g>
	<g>
		<g>
			<g>
				
					<ellipse transform="matrix(0.7717 -0.6359 0.6359 0.7717 -141.2472 263.949)" style="fill:#FAC119;" cx="297.065" cy="328.736" rx="12.066" ry="8.416"/>
				<path style="fill:#F9A41C;" d="M301.568,334.234c-5.134,4.23-11.831,4.582-14.96,0.786c-3.128-3.796-1.502-10.303,3.632-14.533
					c5.134-4.23,11.831-4.582,14.959-0.786C308.328,323.497,306.702,330.004,301.568,334.234z"/>
				
					<ellipse transform="matrix(0.7717 -0.6359 0.6359 0.7717 -141.2472 263.949)" style="fill:#FAC119;" cx="297.065" cy="328.736" rx="12.066" ry="8.416"/>
				<path style="fill:#FFCE55;" d="M289.375,328.325c-0.741-0.024-1.485-0.04-2.231-0.052c-1.228,3.006-1.117,6.041,0.609,8.136
					c2.956,3.587,9.521,3.06,14.664-1.178c2.131-1.756,3.681-3.873,4.558-6.006C301.113,328.914,295.285,328.519,289.375,328.325z"
					/>
				<path style="fill:#F9A41C;" d="M301,333.511c-3.781,3.116-8.608,3.504-10.781,0.866c-2.173-2.637-0.87-7.301,2.911-10.417
					c3.781-3.116,8.608-3.504,10.781-0.866C306.084,325.732,304.781,330.395,301,333.511z"/>
				<g>
					<path style="fill:#34304F;" d="M294.127,331.226l-0.861,0.71l-0.216-0.261l0.854-0.704c-0.384-0.543-0.511-1.246-0.348-1.811
						l0.552-0.201c-0.139,0.519-0.049,1.147,0.275,1.617l1.971-1.624c-0.272-0.742-0.499-1.537,0.49-2.352
						c0.72-0.593,1.639-0.744,2.388-0.019l0.862-0.71l0.216,0.262l-0.854,0.704c0.301,0.411,0.459,0.938,0.41,1.444l-0.55,0.234
						c0.029-0.515-0.105-0.967-0.332-1.289l-1.986,1.637c0.284,0.757,0.557,1.577-0.447,2.404
						C295.823,331.864,294.879,332.002,294.127,331.226z M296.205,330.909c0.592-0.488,0.48-1.036,0.267-1.615l-1.874,1.544
						C295.132,331.363,295.726,331.304,296.205,330.909z M296.879,328.519l1.873-1.544c-0.511-0.482-1.106-0.396-1.579-0.007
						C296.604,327.438,296.683,327.961,296.879,328.519z"/>
				</g>
			</g>
			<g>
				
					<line style="fill:none;stroke:#211D1D;stroke-width:0.1016;stroke-miterlimit:10;" x1="298.202" y1="318.775" x2="297.765" y2="321.516"/>
				
					<line style="fill:none;stroke:#211D1D;stroke-width:0.1016;stroke-miterlimit:10;" x1="301.419" y1="318.518" x2="300.278" y2="321.312"/>
				
					<line style="fill:none;stroke:#211D1D;stroke-width:0.1016;stroke-miterlimit:10;" x1="304.2" y1="319.403" x2="302.467" y2="322.097"/>
			</g>
			<g>
				
					<line style="fill:none;stroke:#211D1D;stroke-width:0.1016;stroke-miterlimit:10;" x1="297.516" y1="338.181" x2="297.534" y2="335.545"/>
				
					<line style="fill:none;stroke:#211D1D;stroke-width:0.1016;stroke-miterlimit:10;" x1="294.209" y1="338.872" x2="294.95" y2="336.087"/>
				
					<line style="fill:none;stroke:#211D1D;stroke-width:0.1016;stroke-miterlimit:10;" x1="291.173" y1="338.429" x2="292.547" y2="335.656"/>
			</g>
		</g>
	</g>
	<g>
		<g>
			<g>
				<path style="fill:#FAC119;" d="M179.882,419.358c-5.143,4.238-11.708,4.765-14.664,1.178c-2.956-3.587-1.183-9.93,3.96-14.168
					c5.143-4.238,11.708-4.765,14.664-1.178C186.798,408.777,185.025,415.121,179.882,419.358z"/>
				<path style="fill:#F9A41C;" d="M179.033,418.361c-5.134,4.23-11.831,4.582-14.96,0.786c-3.128-3.796-1.502-10.303,3.632-14.533
					c5.134-4.23,11.831-4.582,14.959-0.786C185.793,407.624,184.167,414.131,179.033,418.361z"/>
				<path style="fill:#FAC119;" d="M179.882,419.358c-5.143,4.238-11.708,4.765-14.664,1.178c-2.956-3.587-1.183-9.93,3.96-14.168
					c5.143-4.238,11.708-4.765,14.664-1.178C186.798,408.777,185.025,415.121,179.882,419.358z"/>
				<path style="fill:#FFCE55;" d="M166.84,412.453c-0.741-0.024-1.485-0.04-2.231-0.052c-1.228,3.006-1.117,6.041,0.609,8.136
					c2.956,3.587,9.521,3.06,14.664-1.178c2.131-1.756,3.681-3.873,4.558-6.006C178.578,413.041,172.751,412.646,166.84,412.453z"/>
				<path style="fill:#F9A41C;" d="M178.465,417.639c-3.781,3.116-8.608,3.504-10.781,0.866c-2.173-2.637-0.87-7.301,2.911-10.417
					c3.781-3.116,8.608-3.504,10.781-0.866C183.55,409.859,182.246,414.523,178.465,417.639z"/>
				<g>
					<path style="fill:#34304F;" d="M171.592,415.354l-0.861,0.71l-0.216-0.261l0.854-0.704c-0.384-0.543-0.511-1.246-0.348-1.811
						l0.552-0.201c-0.139,0.519-0.05,1.147,0.275,1.617l1.971-1.624c-0.272-0.742-0.499-1.537,0.49-2.352
						c0.72-0.593,1.639-0.744,2.387-0.019l0.862-0.71l0.216,0.261l-0.854,0.704c0.301,0.411,0.459,0.938,0.41,1.444l-0.55,0.234
						c0.029-0.515-0.105-0.967-0.332-1.289l-1.986,1.637c0.284,0.757,0.557,1.577-0.447,2.404
						C173.288,415.992,172.345,416.129,171.592,415.354z M173.671,415.036c0.592-0.488,0.48-1.036,0.267-1.615l-1.874,1.544
						C172.598,415.49,173.192,415.431,173.671,415.036z M174.344,412.647l1.873-1.544c-0.511-0.483-1.106-0.396-1.579-0.007
						C174.07,411.566,174.149,412.089,174.344,412.647z"/>
				</g>
			</g>
			<g>
				
					<line style="fill:none;stroke:#211D1D;stroke-width:0.1016;stroke-miterlimit:10;" x1="175.667" y1="402.902" x2="175.23" y2="405.643"/>
				
					<line style="fill:none;stroke:#211D1D;stroke-width:0.1016;stroke-miterlimit:10;" x1="178.884" y1="402.645" x2="177.744" y2="405.44"/>
				
					<line style="fill:none;stroke:#211D1D;stroke-width:0.1016;stroke-miterlimit:10;" x1="181.666" y1="403.53" x2="179.933" y2="406.225"/>
			</g>
			<g>
				
					<line style="fill:none;stroke:#211D1D;stroke-width:0.1016;stroke-miterlimit:10;" x1="174.982" y1="422.309" x2="174.999" y2="419.672"/>
				
					<line style="fill:none;stroke:#211D1D;stroke-width:0.1016;stroke-miterlimit:10;" x1="171.674" y1="422.999" x2="172.416" y2="420.215"/>
				
					<line style="fill:none;stroke:#211D1D;stroke-width:0.1016;stroke-miterlimit:10;" x1="168.638" y1="422.556" x2="170.012" y2="419.783"/>
			</g>
		</g>
	</g>
	<g>
		<g>
			<g>
				
					<ellipse transform="matrix(0.8231 -0.5679 0.5679 0.8231 -184.0185 196.1589)" style="fill:#FAC119;" cx="222.851" cy="393.453" rx="26.29" ry="18.337"/>
				
					<ellipse transform="matrix(0.8231 -0.5679 0.5679 0.8231 -182.6013 194.3068)" style="fill:#F9A41C;" cx="220.586" cy="390.251" rx="26.244" ry="19.406"/>
				
					<ellipse transform="matrix(0.8231 -0.5679 0.5679 0.8231 -184.0185 196.1589)" style="fill:#FAC119;" cx="222.851" cy="393.453" rx="26.29" ry="18.337"/>
				<path style="fill:#FFCE55;" d="M206.233,391.134c-1.604-0.19-3.217-0.361-4.833-0.526c-3.225,6.299-3.547,12.907-0.188,17.775
					c5.751,8.336,20.102,8.409,32.053,0.163c4.951-3.416,8.71-7.725,11.01-12.193C231.606,394.59,219.028,392.651,206.233,391.134z"
					/>
				<path style="fill:#F9A41C;" d="M230.507,404.55c-8.787,6.062-19.338,6.009-23.566-0.12c-4.228-6.129-0.533-16.011,8.254-22.074
					c8.787-6.063,19.338-6.009,23.566,0.12C242.989,388.605,239.294,398.487,230.507,404.55z"/>
				<g>
					<path style="fill:#34304F;" d="M216.011,398.312l-2.003,1.382l-0.419-0.607l1.985-1.37c-0.734-1.25-0.877-2.799-0.417-3.995
						l1.236-0.333c-0.399,1.099-0.321,2.479,0.296,3.559l4.581-3.16c-0.451-1.66-0.797-3.429,1.502-5.015
						c1.671-1.154,3.695-1.313,5.186,0.401l2.003-1.382l0.419,0.607l-1.986,1.37c0.576,0.947,0.822,2.122,0.622,3.21l-1.238,0.405
						c0.158-1.113-0.048-2.118-0.481-2.859l-4.616,3.185c0.477,1.697,0.916,3.526-1.417,5.136
						C219.574,400.012,217.499,400.135,216.011,398.312z M220.582,398.009c1.376-0.949,1.234-2.161,0.879-3.457l-4.354,3.004
						C218.169,398.795,219.468,398.778,220.582,398.009z M222.488,392.946l4.354-3.004c-1.02-1.143-2.328-1.064-3.425-0.307
						C222.094,390.549,222.167,391.698,222.488,392.946z"/>
				</g>
			</g>
			<g>
				
					<line style="fill:none;stroke:#211D1D;stroke-width:0.2213;stroke-miterlimit:10;" x1="227.167" y1="372.038" x2="225.71" y2="377.909"/>
				
					<line style="fill:none;stroke:#211D1D;stroke-width:0.2213;stroke-miterlimit:10;" x1="234.199" y1="372.078" x2="231.204" y2="377.933"/>
				
					<line style="fill:none;stroke:#211D1D;stroke-width:0.2213;stroke-miterlimit:10;" x1="240.073" y1="374.516" x2="235.811" y2="380.043"/>
			</g>
			<g>
				
					<line style="fill:none;stroke:#211D1D;stroke-width:0.2213;stroke-miterlimit:10;" x1="222.079" y1="414.042" x2="222.606" y2="408.322"/>
				
					<line style="fill:none;stroke:#211D1D;stroke-width:0.2213;stroke-miterlimit:10;" x1="214.77" y1="414.927" x2="216.896" y2="409.02"/>
				
					<line style="fill:none;stroke:#211D1D;stroke-width:0.2213;stroke-miterlimit:10;" x1="208.261" y1="413.403" x2="211.758" y2="407.637"/>
			</g>
		</g>
	</g>
	<g>
		<g>
			<g>
				<path style="fill:#FAC119;" d="M382.847,281.269c-9.039,6.237-19.894,6.182-24.244-0.123c-4.35-6.305-0.549-16.472,8.491-22.709
					c9.04-6.237,19.894-6.182,24.244,0.123C395.689,264.865,391.887,275.033,382.847,281.269z"/>
				
					<ellipse transform="matrix(0.8231 -0.5679 0.5679 0.8231 -85.8442 259.2806)" style="fill:#F9A41C;" cx="373.258" cy="267.432" rx="19.85" ry="14.678"/>
				<path style="fill:#FAC119;" d="M382.847,281.269c-9.039,6.237-19.894,6.182-24.244-0.123c-4.35-6.305-0.549-16.472,8.491-22.709
					c9.04-6.237,19.894-6.182,24.244,0.123C395.689,264.865,391.887,275.033,382.847,281.269z"/>
				<path style="fill:#FFCE55;" d="M362.401,268.099c-1.213-0.144-2.433-0.273-3.656-0.398c-2.439,4.764-2.683,9.763-0.142,13.444
					c4.35,6.305,15.205,6.36,24.244,0.123c3.745-2.584,6.588-5.843,8.328-9.222C381.593,270.713,372.079,269.247,362.401,268.099z"
					/>
				<path style="fill:#F9A41C;" d="M380.762,278.247c-6.646,4.585-14.627,4.545-17.825-0.091
					c-3.198-4.636-0.403-12.111,6.243-16.696c6.646-4.586,14.627-4.545,17.825,0.091
					C390.203,266.186,387.408,273.661,380.762,278.247z"/>
				<g>
					<path style="fill:#34304F;" d="M369.797,273.529l-1.515,1.045l-0.317-0.459l1.501-1.036c-0.555-0.945-0.663-2.117-0.315-3.022
						l0.935-0.252c-0.302,0.831-0.243,1.875,0.224,2.692l3.465-2.39c-0.341-1.256-0.603-2.593,1.136-3.793
						c1.264-0.872,2.795-0.993,3.922,0.303l1.515-1.045l0.317,0.459l-1.502,1.036c0.436,0.716,0.622,1.605,0.47,2.428l-0.936,0.306
						c0.119-0.842-0.036-1.602-0.364-2.162l-3.491,2.409c0.361,1.283,0.693,2.667-1.072,3.885
						C372.492,274.814,370.923,274.908,369.797,273.529z M373.255,273.299c1.04-0.718,0.933-1.634,0.665-2.615l-3.293,2.272
						C371.429,273.894,372.412,273.881,373.255,273.299z M374.696,269.47l3.294-2.272c-0.771-0.864-1.761-0.805-2.591-0.232
						C374.398,267.657,374.453,268.526,374.696,269.47z"/>
				</g>
			</g>
			<g>
				
					<line style="fill:none;stroke:#211D1D;stroke-width:0.1674;stroke-miterlimit:10;" x1="378.235" y1="253.656" x2="377.134" y2="258.096"/>
				
					<line style="fill:none;stroke:#211D1D;stroke-width:0.1674;stroke-miterlimit:10;" x1="383.554" y1="253.686" x2="381.289" y2="258.114"/>
				
					<line style="fill:none;stroke:#211D1D;stroke-width:0.1674;stroke-miterlimit:10;" x1="387.997" y1="255.529" x2="384.774" y2="259.711"/>
			</g>
			<g>
				
					<line style="fill:none;stroke:#211D1D;stroke-width:0.1674;stroke-miterlimit:10;" x1="374.387" y1="285.426" x2="374.785" y2="281.1"/>
				
					<line style="fill:none;stroke:#211D1D;stroke-width:0.1674;stroke-miterlimit:10;" x1="368.858" y1="286.096" x2="370.467" y2="281.628"/>
				
					<line style="fill:none;stroke:#211D1D;stroke-width:0.1674;stroke-miterlimit:10;" x1="363.935" y1="284.943" x2="366.58" y2="280.582"/>
			</g>
		</g>
	</g>
</g>
</svg>
